<svg width="52" height="52" viewBox="0 0 52 52" fill="none" xmlns="http://www.w3.org/2000/svg">
<rect width="52" height="52" rx="8" fill="white" fill-opacity="0.2"/>
<path d="M25.1995 17.1331C26.2186 18.1606 26.7666 19.4766 26.8982 21.0465C26.3206 21.3257 25.8197 21.7555 25.4939 22.3317C24.9271 23.3339 24.9437 24.5695 25.5371 25.5561L25.82 26.0267C25.5408 26.5289 25.22 27.0224 24.8369 27.5029C23.4254 29.2724 21.6266 30.999 19.4417 32.6813H26.6263L25.5371 34.4923C25.1307 35.1683 25.0159 35.9583 25.1526 36.7125H14.0459C13.3095 36.7125 12.7125 36.1155 12.7125 35.3792V33.6609C12.7125 33.2637 12.8836 32.8922 13.1897 32.639C14.4007 31.6373 17.164 29.3014 18.0927 28.4456C19.1852 27.4404 20.109 26.387 20.8629 25.2842C21.6175 24.1826 21.9944 23.1084 21.9944 22.0641C21.9944 21.2711 21.8102 20.6527 21.443 20.2086C21.0758 19.7633 20.5244 19.5407 19.79 19.5407C19.055 19.5407 18.4794 19.8167 18.0641 20.3675C17.7219 20.8206 17.5206 21.428 17.4601 22.1889C17.4375 22.4736 17.2154 22.7021 16.9297 22.7021H14.1226C13.3057 22.7021 12.6605 21.965 12.7962 21.1595C12.9611 20.18 13.2668 19.3214 13.7132 18.5837C14.3798 17.4808 15.26 16.6696 16.3525 16.1475C17.445 15.6253 18.6585 15.3636 19.9931 15.3636C22.2939 15.3636 24.0296 15.9534 25.1995 17.1331Z" fill="white"/>
<path d="M38.8944 24.2233L35.3805 30.0658L38.8944 35.9082C39.1082 36.2637 38.8521 36.7165 38.4373 36.7165H36.1344C35.6666 36.7165 35.2331 36.4713 34.992 36.0703L33.3805 33.3911L31.7691 36.0703C31.5279 36.4713 31.0944 36.7165 30.6266 36.7165H28.3237C27.9089 36.7165 27.6528 36.2637 27.8666 35.9082L31.3805 30.0658L27.8666 24.2233C27.6528 23.8678 27.9089 23.415 28.3237 23.415L30.6266 23.415C31.0944 23.415 31.5279 23.6602 31.7691 24.0612L33.3805 26.7406L34.992 24.0612C35.2331 23.6602 35.6666 23.415 36.1344 23.415H38.4373C38.8521 23.415 39.1082 23.8678 38.8944 24.2233Z" fill="white"/>
</svg>
