<svg width="36" height="36" viewBox="0 0 36 36" fill="none" xmlns="http://www.w3.org/2000/svg">
<path fill-rule="evenodd" clip-rule="evenodd" d="M18 36C27.9411 36 36 27.9411 36 18C36 8.05887 27.9411 0 18 0C8.05887 0 0 8.05887 0 18C0 27.9411 8.05887 36 18 36Z" fill="black" fill-opacity="0.2"/>
<g clip-path="url(#clip0)">
<path d="M24.875 8.83331H11.125C9.861 8.83331 8.83333 9.86098 8.83333 11.125V21.4375C8.83333 22.7015 9.861 23.7291 11.125 23.7291H14.5625V26.737C14.5625 27.0879 14.9635 27.292 15.2464 27.0843L19.7187 23.7291H24.875C26.139 23.7291 27.1667 22.7015 27.1667 21.4375V11.125C27.1667 9.86098 26.139 8.83331 24.875 8.83331Z" fill="#7373AB"/>
<path d="M24.875 8.83331H11.125C9.861 8.83331 8.83333 9.86098 8.83333 11.125V21.4375C8.83333 22.7015 9.861 23.7291 11.125 23.7291H14.5625V26.737C14.5625 27.0879 14.9635 27.292 15.2464 27.0843L19.7187 23.7291H24.875C26.139 23.7291 27.1667 22.7015 27.1667 21.4375V11.125C27.1667 9.86098 26.139 8.83331 24.875 8.83331Z" fill="#5454D1"/>
<path d="M24.875 8.83331H11.125C9.861 8.83331 8.83333 9.86098 8.83333 11.125V21.4375C8.83333 22.7015 9.861 23.7291 11.125 23.7291H14.5625V26.737C14.5625 27.0879 14.9635 27.292 15.2464 27.0843L19.7187 23.7291H24.875C26.139 23.7291 27.1667 22.7015 27.1667 21.4375V11.125C27.1667 9.86098 26.139 8.83331 24.875 8.83331Z" fill="#FBFBFB"/>
</g>
<defs>
<clipPath id="clip0">
<rect width="18.3333" height="18.3333" fill="white" transform="translate(8.83333 8.83331)"/>
</clipPath>
</defs>
</svg>
