<svg width="24" height="24" viewBox="0 0 24 24" fill="none" xmlns="http://www.w3.org/2000/svg">
<path d="M14.4226 12.0009L20.4771 5.94467C20.6407 5.78667 20.7712 5.59768 20.861 5.38872C20.9507 5.17976 20.998 4.95502 20.9999 4.72761C21.0019 4.50019 20.9586 4.27466 20.8725 4.06417C20.7863 3.85369 20.6592 3.66246 20.4984 3.50164C20.3375 3.34083 20.1463 3.21366 19.9358 3.12754C19.7253 3.04142 19.4998 2.99809 19.2724 3.00006C19.045 3.00204 18.8202 3.04929 18.6113 3.13905C18.4023 3.22881 18.2133 3.35929 18.0553 3.52287L11.9991 9.57735L5.94467 3.52287C5.78667 3.35929 5.59768 3.22881 5.38872 3.13905C5.17976 3.04929 4.95502 3.00204 4.72761 3.00006C4.50019 2.99809 4.27466 3.04142 4.06417 3.12754C3.85369 3.21366 3.66246 3.34083 3.50164 3.50164C3.34083 3.66246 3.21366 3.85369 3.12754 4.06417C3.04142 4.27466 2.99809 4.50019 3.00006 4.72761C3.00204 4.95502 3.04929 5.17976 3.13905 5.38872C3.22881 5.59768 3.35929 5.78667 3.52287 5.94467L9.57735 11.9991L3.52287 18.0553C3.35929 18.2133 3.22881 18.4023 3.13905 18.6113C3.04929 18.8202 3.00204 19.045 3.00006 19.2724C2.99809 19.4998 3.04142 19.7253 3.12754 19.9358C3.21366 20.1463 3.34083 20.3375 3.50164 20.4984C3.66246 20.6592 3.85369 20.7863 4.06417 20.8725C4.27466 20.9586 4.50019 21.0019 4.72761 20.9999C4.95502 20.998 5.17976 20.9507 5.38872 20.861C5.59768 20.7712 5.78667 20.6407 5.94467 20.4771L11.9991 14.4226L18.0553 20.4771C18.2133 20.6407 18.4023 20.7712 18.6113 20.861C18.8202 20.9507 19.045 20.998 19.2724 20.9999C19.4998 21.0019 19.7253 20.9586 19.9358 20.8725C20.1463 20.7863 20.3375 20.6592 20.4984 20.4984C20.6592 20.3375 20.7863 20.1463 20.8725 19.9358C20.9586 19.7253 21.0019 19.4998 20.9999 19.2724C20.998 19.045 20.9507 18.8202 20.861 18.6113C20.7712 18.4023 20.6407 18.2133 20.4771 18.0553L14.4226 11.9991V12.0009Z" fill="#FAFAFA"/>
</svg>
