<svg width="40" height="40" viewBox="0 0 40 40" fill="none" xmlns="http://www.w3.org/2000/svg">
<path fill-rule="evenodd" clip-rule="evenodd" d="M20 40C31.0457 40 40 31.0457 40 20C40 8.9543 31.0457 0 20 0C8.9543 0 0 8.9543 0 20C0 31.0457 8.9543 40 20 40Z" fill="black" fill-opacity="0.2"/>
<path d="M17.25 17.9375C17.25 17.1782 16.6343 16.5625 15.875 16.5625H15.1875C13.6686 16.5625 12.4375 17.7936 12.4375 19.3125V21.375C12.4375 22.8939 13.6686 24.125 15.1875 24.125H15.875C16.6343 24.125 17.25 23.5093 17.25 22.75V17.9375ZM24.8125 24.125C26.3314 24.125 27.5625 22.8939 27.5625 21.375V19.3125C27.5625 17.7936 26.3314 16.5625 24.8125 16.5625H24.125C23.3657 16.5625 22.75 17.1782 22.75 17.9375V22.75C22.75 23.5093 23.3657 24.125 24.125 24.125H24.8125ZM20 9C13.8632 9 9.1968 14.106 9 20V20.6875C9 21.0673 9.30766 21.375 9.6875 21.375H10.375C10.7548 21.375 11.0625 21.0673 11.0625 20.6875V20C11.0625 15.0719 15.0719 11.0625 20 11.0625C24.9281 11.0625 28.9375 15.0719 28.9375 20H28.9323C28.9358 20.1044 28.9375 27.1208 28.9375 27.1208C28.9375 28.1241 28.1241 28.9375 27.1208 28.9375H22.75C22.75 27.7984 21.8266 26.875 20.6875 26.875H19.3125C18.1734 26.875 17.25 27.7984 17.25 28.9375C17.25 30.0766 18.1734 31 19.3125 31H27.1208C29.2632 31 31 29.2632 31 27.1208V20C30.8032 14.106 26.1368 9 20 9Z" fill="#FAFAFA"/>
</svg>
