<svg width="40" height="40" viewBox="0 0 40 40" fill="none" xmlns="http://www.w3.org/2000/svg">
<path fill-rule="evenodd" clip-rule="evenodd" d="M20 40C31.0457 40 40 31.0457 40 20C40 8.95431 31.0457 0 20 0C8.95431 0 0 8.95431 0 20C0 31.0457 8.95431 40 20 40Z" fill="black" fill-opacity="0.2"/>
<path d="M30.6562 20.4808C30.6671 26.0851 25.879 30.6679 20.0077 30.6718C17.4719 30.6736 15.1427 29.8298 13.3123 28.4196C12.8363 28.0529 12.8007 27.372 13.2332 26.9592L13.7174 26.4971C14.0873 26.144 14.6778 26.1053 15.0877 26.4157C16.4363 27.4372 18.1429 28.0469 20 28.0469C24.3701 28.0469 27.9062 24.6708 27.9062 20.5C27.9062 16.3285 24.3694 12.9531 20 12.9531C17.9025 12.9531 15.9975 13.7312 14.583 15.0011L16.7639 17.0828C17.197 17.4963 16.8902 18.2031 16.2777 18.2031H10.0312C9.65154 18.2031 9.34375 17.9093 9.34375 17.5469V11.5843C9.34375 10.9997 10.0843 10.7069 10.5174 11.1203L12.6389 13.1453C14.5519 11.4001 17.1448 10.3281 20 10.3281C25.8786 10.3281 30.6454 14.8718 30.6562 20.4808ZM22.8827 23.7121L23.3048 23.1941C23.6544 22.765 23.5735 22.1465 23.1239 21.8127L21.375 20.5143V16.2344C21.375 15.6907 20.9133 15.25 20.3437 15.25H19.6562C19.0867 15.25 18.625 15.6907 18.625 16.2344V21.7982L21.4355 23.8848C21.8851 24.2186 22.533 24.1413 22.8827 23.7121V23.7121Z" fill="#7373AB"/>
<path d="M30.6562 20.4808C30.6671 26.0851 25.879 30.6679 20.0077 30.6718C17.4719 30.6736 15.1427 29.8298 13.3123 28.4196C12.8363 28.0529 12.8007 27.372 13.2332 26.9592L13.7174 26.4971C14.0873 26.144 14.6778 26.1053 15.0877 26.4157C16.4363 27.4372 18.1429 28.0469 20 28.0469C24.3701 28.0469 27.9062 24.6708 27.9062 20.5C27.9062 16.3285 24.3694 12.9531 20 12.9531C17.9025 12.9531 15.9975 13.7312 14.583 15.0011L16.7639 17.0828C17.197 17.4963 16.8902 18.2031 16.2777 18.2031H10.0312C9.65154 18.2031 9.34375 17.9093 9.34375 17.5469V11.5843C9.34375 10.9997 10.0843 10.7069 10.5174 11.1203L12.6389 13.1453C14.5519 11.4001 17.1448 10.3281 20 10.3281C25.8786 10.3281 30.6454 14.8718 30.6562 20.4808ZM22.8827 23.7121L23.3048 23.1941C23.6544 22.765 23.5735 22.1465 23.1239 21.8127L21.375 20.5143V16.2344C21.375 15.6907 20.9133 15.25 20.3437 15.25H19.6562C19.0867 15.25 18.625 15.6907 18.625 16.2344V21.7982L21.4355 23.8848C21.8851 24.2186 22.533 24.1413 22.8827 23.7121V23.7121Z" fill="#5454D1"/>
<path d="M30.6562 20.4808C30.6671 26.0851 25.879 30.6679 20.0077 30.6718C17.4719 30.6736 15.1427 29.8298 13.3123 28.4196C12.8363 28.0529 12.8007 27.372 13.2332 26.9592L13.7174 26.4971C14.0873 26.144 14.6778 26.1053 15.0877 26.4157C16.4363 27.4372 18.1429 28.0469 20 28.0469C24.3701 28.0469 27.9062 24.6708 27.9062 20.5C27.9062 16.3285 24.3694 12.9531 20 12.9531C17.9025 12.9531 15.9975 13.7312 14.583 15.0011L16.7639 17.0828C17.197 17.4963 16.8902 18.2031 16.2777 18.2031H10.0312C9.65154 18.2031 9.34375 17.9093 9.34375 17.5469V11.5843C9.34375 10.9997 10.0843 10.7069 10.5174 11.1203L12.6389 13.1453C14.5519 11.4001 17.1448 10.3281 20 10.3281C25.8786 10.3281 30.6454 14.8718 30.6562 20.4808ZM22.8827 23.7121L23.3048 23.1941C23.6544 22.765 23.5735 22.1465 23.1239 21.8127L21.375 20.5143V16.2344C21.375 15.6907 20.9133 15.25 20.3437 15.25H19.6562C19.0867 15.25 18.625 15.6907 18.625 16.2344V21.7982L21.4355 23.8848C21.8851 24.2186 22.533 24.1413 22.8827 23.7121V23.7121Z" fill="#FBFBFB"/>
</svg>
