<svg width="52" height="52" viewBox="0 0 52 52" fill="none" xmlns="http://www.w3.org/2000/svg">
<rect x="1" y="1" width="50" height="50" rx="7" fill="white" fill-opacity="0.12"/>
<rect x="1" y="1" width="50" height="50" rx="7" stroke="url(#paint0_linear_6548_373906)" stroke-width="2"/>
<path d="M37.7562 14.2438L35.4258 16.5742C33.0168 14.189 29.7051 12.7138 26.0472 12.7138C20.6229 12.7138 15.9559 15.953 13.8735 20.6027C13.2888 21.9084 14.3004 23.3805 15.7311 23.3805C16.5166 23.3805 17.2232 22.9183 17.5477 22.203C19.0151 18.9694 22.2711 16.7138 26.0472 16.7138C28.5964 16.7138 30.9083 17.7432 32.5945 19.4056L30.2438 21.7562C29.9079 22.0922 30.1458 22.6667 30.621 22.6667H38.1334C38.428 22.6667 38.6667 22.4279 38.6667 22.1333V14.6209C38.6667 14.1458 38.0923 13.9078 37.7562 14.2438Z" fill="white"/>
<path d="M24.6327 30.8277L31.1378 26.4909C31.4545 26.2798 31.4545 25.8145 31.1378 25.6034L24.6327 21.2666C24.2782 21.0303 23.8035 21.2844 23.8035 21.7104L23.8035 30.384C23.8035 30.8099 24.2782 31.064 24.6327 30.8277Z" fill="white"/>
<path d="M34.5466 29.8913C34.8711 29.176 35.5778 28.7138 36.3632 28.7138C37.7939 28.7138 38.8055 30.1859 38.2207 31.4916C36.1385 36.1412 31.4715 39.3805 26.0472 39.3805C22.3653 39.3805 18.9849 37.8407 16.5721 35.428L14.2438 37.7562C13.9078 38.0922 13.3334 37.8542 13.3334 37.3791V29.8667C13.3334 29.5721 13.5721 29.3333 13.8667 29.3333H21.3791C21.8543 29.3333 22.0922 29.9078 21.7562 30.2438L19.4034 32.5967C21.0934 34.2866 23.474 35.3805 26.0472 35.3805C29.8232 35.3805 33.0792 33.1249 34.5466 29.8913Z" fill="white"/>
<defs>
<linearGradient id="paint0_linear_6548_373906" x1="1.93715e-07" y1="26" x2="52" y2="26" gradientUnits="userSpaceOnUse">
<stop stop-color="#44CFED"/>
<stop offset="1" stop-color="#FEF686"/>
</linearGradient>
</defs>
</svg>
