<svg width="40" height="40" viewBox="0 0 40 40" fill="none" xmlns="http://www.w3.org/2000/svg">
<path fill-rule="evenodd" clip-rule="evenodd" d="M20 40C31.0457 40 40 31.0457 40 20C40 8.95431 31.0457 0 20 0C8.95431 0 0 8.95431 0 20C0 31.0457 8.95431 40 20 40Z" fill="black" fill-opacity="0.2"/>
<path d="M29.7318 22.6435L27.8477 21.5524C28.0379 20.5234 28.0379 19.4677 27.8477 18.4387L29.7318 17.3476C29.9485 17.2234 30.0458 16.9661 29.975 16.7266C29.4841 15.1476 28.6482 13.7194 27.5558 12.5307C27.3877 12.3488 27.1135 12.3045 26.9012 12.4287L25.0172 13.5198C24.2255 12.8367 23.3144 12.3089 22.3281 11.9629V9.78512C22.3281 9.53673 22.1557 9.3194 21.9124 9.26617C20.2893 8.90246 18.6263 8.9202 17.0828 9.26617C16.8395 9.3194 16.6671 9.53673 16.6671 9.78512V11.9674C15.6852 12.3178 14.7741 12.8456 13.978 13.5242L12.0984 12.4331C11.8817 12.3089 11.6119 12.3488 11.4438 12.5351C10.3514 13.7194 9.51552 15.1476 9.0246 16.7311C8.94941 16.9706 9.05113 17.2278 9.26785 17.352L11.1519 18.4432C10.9617 19.4722 10.9617 20.5278 11.1519 21.5568L9.26785 22.648C9.05113 22.7722 8.95383 23.0294 9.0246 23.2689C9.51552 24.848 10.3514 26.2762 11.4438 27.4649C11.6119 27.6467 11.8861 27.6911 12.0984 27.5669L13.9825 26.4758C14.7741 27.1588 15.6852 27.6867 16.6715 28.0326V30.2149C16.6715 30.4633 16.844 30.6806 17.0872 30.7338C18.7104 31.0975 20.3733 31.0798 21.9168 30.7338C22.1601 30.6806 22.3326 30.4633 22.3326 30.2149V28.0326C23.3144 27.6822 24.2255 27.1544 25.0216 26.4758L26.9057 27.5669C27.1224 27.6911 27.3922 27.6512 27.5602 27.4649C28.6526 26.2806 29.4885 24.8524 29.9794 23.2689C30.0458 23.025 29.9485 22.7677 29.7318 22.6435V22.6435ZM19.4976 23.5439C17.5472 23.5439 15.9594 21.9516 15.9594 19.9956C15.9594 18.0395 17.5472 16.4472 19.4976 16.4472C21.448 16.4472 23.0358 18.0395 23.0358 19.9956C23.0358 21.9516 21.448 23.5439 19.4976 23.5439Z" fill="#7373AB"/>
<path d="M29.7318 22.6435L27.8477 21.5524C28.0379 20.5234 28.0379 19.4677 27.8477 18.4387L29.7318 17.3476C29.9485 17.2234 30.0458 16.9661 29.975 16.7266C29.4841 15.1476 28.6482 13.7194 27.5558 12.5307C27.3877 12.3488 27.1135 12.3045 26.9012 12.4287L25.0172 13.5198C24.2255 12.8367 23.3144 12.3089 22.3281 11.9629V9.78512C22.3281 9.53673 22.1557 9.3194 21.9124 9.26617C20.2893 8.90246 18.6263 8.9202 17.0828 9.26617C16.8395 9.3194 16.6671 9.53673 16.6671 9.78512V11.9674C15.6852 12.3178 14.7741 12.8456 13.978 13.5242L12.0984 12.4331C11.8817 12.3089 11.6119 12.3488 11.4438 12.5351C10.3514 13.7194 9.51552 15.1476 9.0246 16.7311C8.94941 16.9706 9.05113 17.2278 9.26785 17.352L11.1519 18.4432C10.9617 19.4722 10.9617 20.5278 11.1519 21.5568L9.26785 22.648C9.05113 22.7722 8.95383 23.0294 9.0246 23.2689C9.51552 24.848 10.3514 26.2762 11.4438 27.4649C11.6119 27.6467 11.8861 27.6911 12.0984 27.5669L13.9825 26.4758C14.7741 27.1588 15.6852 27.6867 16.6715 28.0326V30.2149C16.6715 30.4633 16.844 30.6806 17.0872 30.7338C18.7104 31.0975 20.3733 31.0798 21.9168 30.7338C22.1601 30.6806 22.3326 30.4633 22.3326 30.2149V28.0326C23.3144 27.6822 24.2255 27.1544 25.0216 26.4758L26.9057 27.5669C27.1224 27.6911 27.3922 27.6512 27.5602 27.4649C28.6526 26.2806 29.4885 24.8524 29.9794 23.2689C30.0458 23.025 29.9485 22.7677 29.7318 22.6435V22.6435ZM19.4976 23.5439C17.5472 23.5439 15.9594 21.9516 15.9594 19.9956C15.9594 18.0395 17.5472 16.4472 19.4976 16.4472C21.448 16.4472 23.0358 18.0395 23.0358 19.9956C23.0358 21.9516 21.448 23.5439 19.4976 23.5439Z" fill="#5454D1"/>
<path d="M29.7318 22.6435L27.8477 21.5524C28.0379 20.5234 28.0379 19.4677 27.8477 18.4387L29.7318 17.3476C29.9485 17.2234 30.0458 16.9661 29.975 16.7266C29.4841 15.1476 28.6482 13.7194 27.5558 12.5307C27.3877 12.3488 27.1135 12.3045 26.9012 12.4287L25.0172 13.5198C24.2255 12.8367 23.3144 12.3089 22.3281 11.9629V9.78512C22.3281 9.53673 22.1557 9.3194 21.9124 9.26617C20.2893 8.90246 18.6263 8.9202 17.0828 9.26617C16.8395 9.3194 16.6671 9.53673 16.6671 9.78512V11.9674C15.6852 12.3178 14.7741 12.8456 13.978 13.5242L12.0984 12.4331C11.8817 12.3089 11.6119 12.3488 11.4438 12.5351C10.3514 13.7194 9.51552 15.1476 9.0246 16.7311C8.94941 16.9706 9.05113 17.2278 9.26785 17.352L11.1519 18.4432C10.9617 19.4722 10.9617 20.5278 11.1519 21.5568L9.26785 22.648C9.05113 22.7722 8.95383 23.0294 9.0246 23.2689C9.51552 24.848 10.3514 26.2762 11.4438 27.4649C11.6119 27.6467 11.8861 27.6911 12.0984 27.5669L13.9825 26.4758C14.7741 27.1588 15.6852 27.6867 16.6715 28.0326V30.2149C16.6715 30.4633 16.844 30.6806 17.0872 30.7338C18.7104 31.0975 20.3733 31.0798 21.9168 30.7338C22.1601 30.6806 22.3326 30.4633 22.3326 30.2149V28.0326C23.3144 27.6822 24.2255 27.1544 25.0216 26.4758L26.9057 27.5669C27.1224 27.6911 27.3922 27.6512 27.5602 27.4649C28.6526 26.2806 29.4885 24.8524 29.9794 23.2689C30.0458 23.025 29.9485 22.7677 29.7318 22.6435V22.6435ZM19.4976 23.5439C17.5472 23.5439 15.9594 21.9516 15.9594 19.9956C15.9594 18.0395 17.5472 16.4472 19.4976 16.4472C21.448 16.4472 23.0358 18.0395 23.0358 19.9956C23.0358 21.9516 21.448 23.5439 19.4976 23.5439Z" fill="#FBFBFB"/>
</svg>
