<svg width="52" height="52" viewBox="0 0 52 52" fill="none" xmlns="http://www.w3.org/2000/svg">
<rect width="52" height="52" rx="8" fill="white" fill-opacity="0.2"/>
<path d="M39.2966 24.5298C38.6124 18.3322 33.5055 13.3355 27.2959 12.7707C23.1231 12.3912 19.302 13.9362 16.6191 16.619L14.2438 14.2438C13.9078 13.9078 13.3334 14.1457 13.3334 14.6209V22.1333C13.3334 22.4279 13.5721 22.6666 13.8667 22.6666H21.3791C21.8543 22.6666 22.0922 22.0922 21.7562 21.7562L19.4519 19.4518L19.4507 19.4502C21.5356 17.3656 24.5999 16.2597 27.8854 16.8904C31.5355 17.5912 34.4829 20.5253 35.1968 24.1728C36.3642 30.1368 31.8065 35.3804 26.0472 35.3804C24.0459 35.3804 22.1895 34.7473 20.6682 33.6707C19.8949 33.1236 18.8258 33.2685 18.1561 33.9383C17.2715 34.8228 17.4171 36.2874 18.4441 37.0016C20.6007 38.5013 23.2213 39.3804 26.0472 39.3804C33.9108 39.3804 40.1845 32.573 39.2966 24.5298Z" fill="white"/>
</svg>
