<svg width="292" height="166" viewBox="0 0 292 166" fill="none" xmlns="http://www.w3.org/2000/svg">
<rect x="4" y="54" width="288" height="108" fill="black"/>
<rect y="58" width="288" height="108" fill="black"/>
<rect x="7" y="57" width="282" height="102" fill="url(#paint0_linear_11_567)"/>
<rect x="7" y="57" width="282" height="102" fill="url(#paint1_linear_11_567)" fill-opacity="0.2"/>
<rect x="7" y="57" width="282" height="102" stroke="url(#paint2_linear_11_567)" stroke-width="2"/>
<path d="M288 158L283.5 158L149.5 158L13.5 158L9.5 158L24 146.5L143 155.5L276 153.5L288 158Z" fill="#48006A"/>
<path d="M8 58L18 68L16 71.5L17 116.5L23.5 146.5L8 158V58Z" fill="#7B13BB"/>
<path d="M8 58H288L269.5 71.5L236.5 63H197L92.5 66L18 68L8 58Z" fill="#B134FE"/>
<path d="M288 158L276 153.5L270.5 135L269.5 71.5L288 58L288 158Z" fill="#7B13BB"/>
<path d="M17.0011 154.844L24.1082 148.617L126.839 154.137L25.4004 145.169L18.2933 116.205L16 71.5L15.7334 115.516L21.5238 146.548L7 158.269H8.44966H9.89933L17.0011 154.844Z" fill="url(#paint3_linear_11_567)"/>
<path d="M270.758 135.731L271.416 70.7596L236.513 62L197 62.9067L236.513 64.3345L268.123 75.757L270.758 135.731Z" fill="url(#paint4_linear_11_567)"/>
<g filter="url(#filter0_d_11_567)">
<path d="M175.529 30.131L175.53 30.1314C183.632 36.1095 183.291 44.1557 182.766 47.3189C182.546 48.6515 181.742 51.4733 180.539 55.0242C179.327 58.6004 177.688 62.981 175.769 67.4593C173.828 71.9907 171.342 75.8963 168.369 79.0537L167.705 78.4285L168.369 79.0537C165.234 82.3842 162.338 84.053 160.423 84.8705C157.039 86.3172 153.85 87 150.413 87C146.555 87 142.679 86.0939 139.152 85.1468L175.529 30.131ZM175.529 30.131C172.051 27.5682 166.823 24.7409 161.957 22.4174M175.529 30.131L161.957 22.4174M161.957 22.4174C157.099 20.0982 152.49 18.2283 150.231 17.6141L161.957 22.4174Z" fill="black" stroke="url(#paint5_linear_11_567)" stroke-width="2"/>
<path d="M178.921 46.6794C179.266 44.6008 179.866 38.1856 173.221 33.2832C166.577 28.3882 152.982 22.4148 149.211 21.3897C145.439 20.3602 139.526 20.8817 133.962 24.0632C130.761 25.8933 127.75 27.0423 122.733 37.1029C118.037 46.519 117.242 50.179 116.933 56.4696C116.624 62.7564 118.311 68.3667 122.288 71.9444C126.27 75.5191 135.304 80.0649 140.159 81.3678C147.489 83.3363 152.51 84.002 158.895 81.2715C162.756 79.6238 168.313 74.9599 172.188 65.9141C176.063 56.872 178.577 48.7624 178.921 46.6794Z" fill="#500A68"/>
<path d="M178.921 46.6794C179.266 44.6008 179.866 38.1856 173.221 33.2832C166.577 28.3882 152.982 22.4148 149.211 21.3897C145.439 20.3602 139.526 20.8817 133.962 24.0632C130.761 25.8933 127.75 27.0423 122.733 37.1029C118.037 46.519 117.242 50.179 116.933 56.4696C116.624 62.7564 118.311 68.3667 122.288 71.9444C126.27 75.5191 135.304 80.0649 140.159 81.3678C147.489 83.3363 152.51 84.002 158.895 81.2715C162.756 79.6238 168.313 74.9599 172.188 65.9141C176.063 56.872 178.577 48.7624 178.921 46.6794Z" fill="url(#paint6_radial_11_567)"/>
<path d="M178.921 46.6794C179.266 44.6008 179.866 38.1856 173.221 33.2832C166.577 28.3882 152.982 22.4148 149.211 21.3897C145.439 20.3602 139.526 20.8817 133.962 24.0632C130.761 25.8933 127.75 27.0423 122.733 37.1029C118.037 46.519 117.242 50.179 116.933 56.4696C116.624 62.7564 118.311 68.3667 122.288 71.9444C126.27 75.5191 135.304 80.0649 140.159 81.3678C147.489 83.3363 152.51 84.002 158.895 81.2715C162.756 79.6238 168.313 74.9599 172.188 65.9141C176.063 56.872 178.577 48.7624 178.921 46.6794Z" fill="url(#paint7_radial_11_567)"/>
<path d="M178.921 46.6794C179.266 44.6008 179.866 38.1856 173.221 33.2832C166.577 28.3882 152.982 22.4148 149.211 21.3897C145.439 20.3602 139.526 20.8817 133.962 24.0632C130.761 25.8933 127.75 27.0423 122.733 37.1029C118.037 46.519 117.242 50.179 116.933 56.4696C116.624 62.7564 118.311 68.3667 122.288 71.9444C126.27 75.5191 135.304 80.0649 140.159 81.3678C147.489 83.3363 152.51 84.002 158.895 81.2715C162.756 79.6238 168.313 74.9599 172.188 65.9141C176.063 56.872 178.577 48.7624 178.921 46.6794Z" fill="url(#paint8_radial_11_567)"/>
<path d="M149.617 20.5321C153.396 21.6128 167.021 27.9106 173.68 33.0715C174.577 33.7694 175.332 34.4943 175.983 35.2338C176.115 36.9671 175.534 39.317 172.011 40.6868C165.932 43.0481 159.988 41.8805 154.81 39.8912C141.441 34.7603 132.087 27.1637 134.333 23.3508C140.316 19.6051 146.239 19.5635 149.617 20.5321Z" fill="url(#paint9_linear_11_567)"/>
<path d="M141.048 80C138.2 80 135.636 78.9747 133.72 78.0814C130.875 76.7553 125.793 73.6206 123.504 71.5666C119.682 68.1387 117.738 62.8185 118.028 56.5861C118.269 51.4175 120.605 45.334 122.108 42.85C125.355 37.4838 129.209 34.6967 134.24 34.0787C134.665 34.0265 135.122 34 135.599 34C141.382 34 150.381 37.9333 154.836 44.2877C160.08 51.7692 157.231 59.7633 157.201 59.8432C157.17 59.9666 154.52 70.6547 150.452 75.2906C147.71 78.4155 144.547 80 141.048 80Z" fill="url(#paint10_linear_11_567)"/>
<path d="M159.632 62.5017C162.302 55.2446 162.621 53.1578 167.51 47.7818C171.078 43.8583 173.896 43.7686 175.378 44.1448C176.177 44.3475 176.89 44.8326 177.351 45.5157C177.981 46.4495 178.066 47.5405 177.963 48.7053C177.061 52.0437 174.811 58.7634 171.656 66.1096C167.796 75.0964 162.26 79.7299 158.415 81.3669C157.849 81.6074 157.304 81.8131 156.759 82C155.164 81.5335 154.403 80.9816 154.067 79.3757C153.473 76.5291 156.954 69.7559 159.632 62.5017Z" fill="url(#paint11_linear_11_567)"/>
<path d="M134.018 55.6472C133.838 57.849 135.021 59.7907 136.669 59.9843C138.313 60.1785 139.796 58.5516 139.982 56.3497C140.164 54.1521 138.978 52.2104 137.333 52.0162C135.686 51.8191 134.203 53.446 134.018 55.6472Z" fill="#CECCDC"/>
<path d="M164.038 32.4821C163.737 33.2012 165.266 34.4607 167.454 35.2997C169.643 36.1386 171.66 36.2386 171.961 35.5195C172.266 34.8004 170.737 33.5401 168.549 32.7019C166.36 31.8592 164.339 31.7622 164.038 32.4821Z" fill="#F5F6FC"/>
<path d="M136.038 26.4821C135.737 27.2012 137.266 28.4607 139.454 29.2997C141.643 30.1386 143.66 30.2386 143.961 29.5195C144.266 28.8004 142.737 27.5401 140.549 26.7019C138.36 25.8592 136.339 25.7622 136.038 26.4821Z" fill="#F5F6FC"/>
<path d="M150.038 28.4821C149.737 29.2012 151.266 30.4607 153.454 31.2997C155.643 32.1386 157.66 32.2386 157.961 31.5195C158.266 30.8004 156.737 29.5401 154.549 28.7019C152.36 27.8592 150.339 27.7622 150.038 28.4821Z" fill="#F5F6FC"/>
<path d="M158.909 73.5822C157.984 75.7767 157.721 77.7487 158.324 77.9777C158.929 78.2092 160.168 76.615 161.089 74.4205C162.018 72.2228 162.278 70.254 161.675 70.0218C161.076 69.7935 159.835 71.3844 158.909 73.5822Z" fill="#B99FB1"/>
<path d="M172.909 50.4777C171.984 53.2208 171.721 55.6859 172.324 55.9721C172.929 56.2615 174.168 54.2688 175.089 51.5257C176.018 48.7785 176.278 46.3175 175.675 46.0272C175.076 45.7419 173.835 47.7305 172.909 50.4777Z" fill="#B99FB1"/>
<path opacity="0.2" d="M160.069 57.9998C159.405 57.9894 158.833 57.4477 158.738 56.7398C158.581 55.5584 158.525 53.4795 158.48 51.809C158.467 51.3281 158.455 50.8783 158.441 50.4891C158.417 49.8162 158.306 49.2103 158.199 48.6244C157.96 47.3194 157.771 46.2888 158.659 45.24C159.283 44.4982 160.678 44 162.13 44C163.715 44 164.982 44.5551 165.609 45.5229C166.589 47.0343 165.57 49.0663 164.28 51.6388C163.732 52.7324 163.11 53.9719 162.577 55.309C161.873 57.0694 161.013 58 160.091 58L160.069 57.9998Z" fill="url(#paint12_linear_11_567)"/>
<path opacity="0.2" d="M130.945 32.6025C131.972 32.3368 134.15 31.5318 133.992 29.8586C133.774 27.5586 130.602 27.5159 128.734 29.0578C125.646 31.607 123.782 33.8102 122 38C126.681 33.9293 128.951 33.1183 130.945 32.6025Z" fill="white"/>
<path opacity="0.1" d="M177.866 48C177.806 46.8745 177.596 45.0034 176.107 44.3864C177.028 41.8729 176.145 38.5639 176 38.0271C176.029 38.0139 176.072 38 176.126 38C176.417 38 176.993 38.378 177.575 40.909C178.176 43.5164 178.005 46.5394 177.866 48Z" fill="white"/>
<path opacity="0.1" d="M169.04 46C169.272 45.3157 169.205 44.687 168.84 44.1259C168.226 43.1835 166.897 42.6411 166 42.3695C167.274 42.3377 168.53 42.2138 169.742 42C170.316 42.0386 170.771 42.1264 171.096 42.261C172.362 42.7869 172.002 43.8438 171.763 44.3106C170.859 44.7159 169.946 45.2829 169.04 46Z" fill="white"/>
</g>
<defs>
<filter id="filter0_d_11_567" x="96.0002" y="0" width="103.997" height="104" filterUnits="userSpaceOnUse" color-interpolation-filters="sRGB">
<feFlood flood-opacity="0" result="BackgroundImageFix"/>
<feColorMatrix in="SourceAlpha" type="matrix" values="0 0 0 0 0 0 0 0 0 0 0 0 0 0 0 0 0 0 127 0" result="hardAlpha"/>
<feMorphology radius="4" operator="dilate" in="SourceAlpha" result="effect1_dropShadow_11_567"/>
<feOffset/>
<feGaussianBlur stdDeviation="6"/>
<feComposite in2="hardAlpha" operator="out"/>
<feColorMatrix type="matrix" values="0 0 0 0 1 0 0 0 0 0.944083 0 0 0 0 0.745833 0 0 0 0.6 0"/>
<feBlend mode="normal" in2="BackgroundImageFix" result="effect1_dropShadow_11_567"/>
<feBlend mode="normal" in="SourceGraphic" in2="effect1_dropShadow_11_567" result="shape"/>
</filter>
<linearGradient id="paint0_linear_11_567" x1="148" y1="-58" x2="106.606" y2="225.221" gradientUnits="userSpaceOnUse">
<stop stop-color="#B134FE"/>
<stop offset="0.765168" stop-color="#6D0C9B"/>
</linearGradient>
<linearGradient id="paint1_linear_11_567" x1="157" y1="56" x2="115.124" y2="182.015" gradientUnits="userSpaceOnUse">
<stop stop-color="white" stop-opacity="0"/>
<stop offset="0.416567" stop-color="white" stop-opacity="0.6"/>
<stop offset="0.416667" stop-color="white" stop-opacity="0"/>
<stop offset="1" stop-color="white" stop-opacity="0"/>
</linearGradient>
<linearGradient id="paint2_linear_11_567" x1="193.024" y1="57.9259" x2="196.223" y2="165.384" gradientUnits="userSpaceOnUse">
<stop stop-color="#FFF3A6"/>
<stop offset="0.286104" stop-color="#FFF3A6"/>
<stop offset="0.786199" stop-color="#FFD533"/>
<stop offset="1" stop-color="#BD8400"/>
</linearGradient>
<linearGradient id="paint3_linear_11_567" x1="85.9183" y1="73.1068" x2="91.182" y2="162.531" gradientUnits="userSpaceOnUse">
<stop stop-color="#FFF3A6"/>
<stop offset="0.286104" stop-color="#FFF3A6"/>
<stop offset="0.786199" stop-color="#FFD533"/>
<stop offset="1" stop-color="#BD8400"/>
</linearGradient>
<linearGradient id="paint4_linear_11_567" x1="246.006" y1="63.3654" x2="252.108" y2="139.123" gradientUnits="userSpaceOnUse">
<stop stop-color="#FFF3A6"/>
<stop offset="0.286104" stop-color="#FFF3A6"/>
<stop offset="0.786199" stop-color="#FFD533"/>
<stop offset="1" stop-color="#BD8400"/>
</linearGradient>
<linearGradient id="paint5_linear_11_567" x1="158.78" y1="19.2593" x2="164.46" y2="89.1206" gradientUnits="userSpaceOnUse">
<stop stop-color="#FFF3A6"/>
<stop offset="0.286104" stop-color="#FFF3A6"/>
<stop offset="0.786199" stop-color="#FFD533"/>
<stop offset="1" stop-color="#BD8400"/>
</linearGradient>
<radialGradient id="paint6_radial_11_567" cx="0" cy="0" r="1" gradientUnits="userSpaceOnUse" gradientTransform="translate(148.96 34.9267) rotate(89.5498) scale(49.0986 55.6465)">
<stop offset="0.69347" stop-color="#620B78" stop-opacity="0"/>
<stop offset="0.80069" stop-color="#500765" stop-opacity="0.28544"/>
<stop offset="1" stop-color="#230036"/>
</radialGradient>
<radialGradient id="paint7_radial_11_567" cx="0" cy="0" r="1" gradientUnits="userSpaceOnUse" gradientTransform="translate(125.486 30.5806) rotate(28.6932) scale(23.1967 48.0265)">
<stop stop-color="#9C23D6"/>
<stop offset="0.01234" stop-color="#9B22D4" stop-opacity="0.98529"/>
<stop offset="0.37753" stop-color="#8218AD" stop-opacity="0.56792"/>
<stop offset="0.67471" stop-color="#711190" stop-opacity="0.26177"/>
<stop offset="0.88933" stop-color="#660C7E" stop-opacity="0.07229"/>
<stop offset="1" stop-color="#620B78" stop-opacity="0"/>
</radialGradient>
<radialGradient id="paint8_radial_11_567" cx="0" cy="0" r="1" gradientUnits="userSpaceOnUse" gradientTransform="translate(160.086 50.9861) rotate(-170.643) scale(23.1852 48.0503)">
<stop stop-color="#8B1FBD"/>
<stop offset="0.31315" stop-color="#7C17A4" stop-opacity="0.63871"/>
<stop offset="0.63919" stop-color="#6E108C" stop-opacity="0.29623"/>
<stop offset="0.87726" stop-color="#650C7D" stop-opacity="0.0818"/>
<stop offset="1" stop-color="#620B78" stop-opacity="0"/>
</radialGradient>
<linearGradient id="paint9_linear_11_567" x1="205.993" y1="51.8167" x2="143.516" y2="29.3011" gradientUnits="userSpaceOnUse">
<stop stop-color="#750D8F"/>
<stop offset="0.09592" stop-color="#680B7F"/>
<stop offset="0.13441" stop-color="#620B78"/>
<stop offset="0.3133" stop-color="#690D87"/>
<stop offset="0.65866" stop-color="#7B15AF"/>
<stop offset="0.67742" stop-color="#7D16B2"/>
<stop offset="0.74559" stop-color="#8619BC"/>
<stop offset="0.89463" stop-color="#9620CF"/>
<stop offset="1" stop-color="#9C23D6"/>
</linearGradient>
<linearGradient id="paint10_linear_11_567" x1="140.108" y1="34.8452" x2="135.727" y2="78.5314" gradientUnits="userSpaceOnUse">
<stop stop-color="#710E99"/>
<stop offset="0.07087" stop-color="#660C89"/>
<stop offset="0.13441" stop-color="#5B0B78"/>
<stop offset="0.3133" stop-color="#640D87"/>
<stop offset="0.65866" stop-color="#7B15AF"/>
<stop offset="0.67742" stop-color="#7D16B2"/>
<stop offset="0.74559" stop-color="#8619BC"/>
<stop offset="0.89463" stop-color="#9620CF"/>
<stop offset="1" stop-color="#9C23D6"/>
</linearGradient>
<linearGradient id="paint11_linear_11_567" x1="175.549" y1="47.8598" x2="150.101" y2="86.7192" gradientUnits="userSpaceOnUse">
<stop stop-color="#6B0D8F"/>
<stop offset="0.09592" stop-color="#5E0B7F"/>
<stop offset="0.13441" stop-color="#590B78"/>
<stop offset="0.3133" stop-color="#620D87"/>
<stop offset="0.65866" stop-color="#7B15AF"/>
<stop offset="0.67742" stop-color="#7D16B2"/>
<stop offset="0.74559" stop-color="#8619BC"/>
<stop offset="0.89463" stop-color="#9620CF"/>
<stop offset="1" stop-color="#9C23D6"/>
</linearGradient>
<linearGradient id="paint12_linear_11_567" x1="161.412" y1="36.3807" x2="162.825" y2="61.438" gradientUnits="userSpaceOnUse">
<stop stop-color="white"/>
<stop offset="0.09557" stop-color="white" stop-opacity="0.93932"/>
<stop offset="0.28105" stop-color="white" stop-opacity="0.78014"/>
<stop offset="0.53786" stop-color="white" stop-opacity="0.52295"/>
<stop offset="0.85292" stop-color="white" stop-opacity="0.17293"/>
<stop offset="1" stop-color="white" stop-opacity="0"/>
</linearGradient>
</defs>
</svg>
